<svg width="78" height="20" viewBox="0 0 78 20" fill="none" xmlns="http://www.w3.org/2000/svg">
<path d="M13.728 0.799988V4.23199H8.81401V19H5.22601V4.23199H0.338013V0.799988H13.728Z" fill="#F1F1F1"/>
<path d="M17.2786 8.23599C17.5906 7.40399 18.102 6.77999 18.8126 6.36399C19.5406 5.94799 20.3466 5.73999 21.2306 5.73999V9.48399C20.208 9.36266 19.2893 9.57066 18.4746 10.108C17.6773 10.6453 17.2786 11.538 17.2786 12.786V19H13.9246V5.99999H17.2786V8.23599Z" fill="#F1F1F1"/>
<path d="M32.5898 5.99999H35.9438V19H32.5898V17.466C31.5845 18.7313 30.1718 19.364 28.3518 19.364C26.6185 19.364 25.1278 18.7053 23.8798 17.388C22.6491 16.0533 22.0338 14.424 22.0338 12.5C22.0338 10.576 22.6491 8.95532 23.8798 7.63799C25.1278 6.30332 26.6185 5.63599 28.3518 5.63599C30.1718 5.63599 31.5845 6.26866 32.5898 7.53399V5.99999ZM26.4018 15.152C27.0778 15.828 27.9358 16.166 28.9758 16.166C30.0158 16.166 30.8738 15.828 31.5498 15.152C32.2431 14.4587 32.5898 13.5747 32.5898 12.5C32.5898 11.4253 32.2431 10.55 31.5498 9.87399C30.8738 9.18066 30.0158 8.83399 28.9758 8.83399C27.9358 8.83399 27.0778 9.18066 26.4018 9.87399C25.7258 10.55 25.3878 11.4253 25.3878 12.5C25.3878 13.5747 25.7258 14.4587 26.4018 15.152Z" fill="#F1F1F1"/>
<path d="M47.5392 5.99999H51.2312L46.2912 19H42.4692L37.5292 5.99999H41.2212L44.3672 15.1L47.5392 5.99999Z" fill="#F1F1F1"/>
<path d="M52.8485 19V0.019989H56.2025V19H52.8485Z" fill="#F1F1F1"/>
<path d="M70.3483 17.388C69.0136 18.7053 67.3843 19.364 65.4603 19.364C63.5363 19.364 61.907 18.7053 60.5723 17.388C59.255 16.0533 58.5963 14.424 58.5963 12.5C58.5963 10.576 59.255 8.95532 60.5723 7.63799C61.907 6.30332 63.5363 5.63599 65.4603 5.63599C67.3843 5.63599 69.0136 6.30332 70.3483 7.63799C71.683 8.95532 72.3503 10.576 72.3503 12.5C72.3503 14.424 71.683 16.0533 70.3483 17.388ZM62.9383 15.074C63.6143 15.75 64.455 16.088 65.4603 16.088C66.4656 16.088 67.3063 15.75 67.9823 15.074C68.6583 14.398 68.9963 13.54 68.9963 12.5C68.9963 11.46 68.6583 10.602 67.9823 9.92599C67.3063 9.24999 66.4656 8.91199 65.4603 8.91199C64.455 8.91199 63.6143 9.24999 62.9383 9.92599C62.2796 10.602 61.9503 11.46 61.9503 12.5C61.9503 13.54 62.2796 14.398 62.9383 15.074Z" fill="#F1F1F1"/>
<path d="M77.1788 18.688C76.7454 19.1213 76.2254 19.338 75.6188 19.338C75.0121 19.338 74.4921 19.1213 74.0588 18.688C73.6255 18.2547 73.4088 17.7347 73.4088 17.128C73.4088 16.5213 73.6255 16.0013 74.0588 15.568C74.4921 15.1347 75.0121 14.918 75.6188 14.918C76.2254 14.918 76.7454 15.1347 77.1788 15.568C77.6121 16.0013 77.8288 16.5213 77.8288 17.128C77.8288 17.7347 77.6121 18.2547 77.1788 18.688Z" fill="#F1F1F1"/>
</svg>
