<svg width="66" height="66" viewBox="0 0 66 66" fill="none" xmlns="http://www.w3.org/2000/svg">
<g filter="url(#filter0_d)">
<path fill-rule="evenodd" clip-rule="evenodd" d="M5.99998 55.4083L59.4083 55.4083L59.4083 2.00001L6 2L5.99998 55.4083ZM61.4083 57.4083L61.4083 1.14441e-05L4 -3.61228e-06L3.99998 57.4083L61.4083 57.4083Z" fill="#F1F1F1"/>
</g>
<path fill-rule="evenodd" clip-rule="evenodd" d="M32.9999 15.9083C33.8284 15.9083 34.4999 16.5799 34.4999 17.4083V39.4083C34.4999 40.2367 33.8284 40.9083 32.9999 40.9083C32.1715 40.9083 31.4999 40.2367 31.4999 39.4083V17.4083C31.4999 16.5799 32.1715 15.9083 32.9999 15.9083Z" fill="#F1F1F1"/>
<path fill-rule="evenodd" clip-rule="evenodd" d="M45.4999 28.4083C45.4999 29.2367 44.8284 29.9083 43.9999 29.9083L21.9999 29.9083C21.1715 29.9083 20.4999 29.2367 20.4999 28.4083C20.4999 27.5799 21.1715 26.9083 21.9999 26.9083L43.9999 26.9083C44.8284 26.9083 45.4999 27.5799 45.4999 28.4083Z" fill="#F1F1F1"/>
<defs>
<filter id="filter0_d" x="0" y="0" width="65.4083" height="65.4083" filterUnits="userSpaceOnUse" color-interpolation-filters="sRGB">
<feFlood flood-opacity="0" result="BackgroundImageFix"/>
<feColorMatrix in="SourceAlpha" type="matrix" values="0 0 0 0 0 0 0 0 0 0 0 0 0 0 0 0 0 0 127 0"/>
<feOffset dy="4"/>
<feGaussianBlur stdDeviation="2"/>
<feColorMatrix type="matrix" values="0 0 0 0 0 0 0 0 0 0 0 0 0 0 0 0 0 0 0.25 0"/>
<feBlend mode="normal" in2="BackgroundImageFix" result="effect1_dropShadow"/>
<feBlend mode="normal" in="SourceGraphic" in2="effect1_dropShadow" result="shape"/>
</filter>
</defs>
</svg>
