<?xml version="1.0" encoding="utf-8"?>
<!-- Generator: Adobe Illustrator 21.0.2, SVG Export Plug-In . SVG Version: 6.00 Build 0)  -->
<svg version="1.1" id="Layer_1" xmlns="http://www.w3.org/2000/svg" xmlns:xlink="http://www.w3.org/1999/xlink" x="0px" y="0px"
	 viewBox="0 0 66 66" style="enable-background:new 0 0 66 66;" xml:space="preserve">
<style type="text/css">
	.st0{fill:#F1F1F1;}
</style>
<g>
	<path class="st0" d="M1.5,1.5v63h63v-63H1.5z M62.3,62.3H3.7V3.7h58.6V62.3z"/>
	<path class="st0" d="M33.3,19c0.9,0,1.6,0.7,1.6,1.6v24.1c0,0.9-0.7,1.6-1.6,1.6c-0.9,0-1.6-0.7-1.6-1.6V20.6
		C31.7,19.7,32.4,19,33.3,19z"/>
	<path class="st0" d="M47,32.7c0,0.9-0.7,1.6-1.6,1.6H21.3c-0.9,0-1.6-0.7-1.6-1.6c0-0.9,0.7-1.6,1.6-1.6h24.1
		C46.3,31,47,31.8,47,32.7z"/>
</g>
</svg>
