<svg width="31" height="31" viewBox="0 0 31 31" fill="none" xmlns="http://www.w3.org/2000/svg">
<path d="M30.1717 0.400012C29.6597 0.0800063 29.0836 -0.0479957 28.3796 0.0160052C27.1636 0.208008 26.1396 0.656015 25.1796 1.36003C24.3476 2.00004 23.3875 2.76805 22.2995 3.66406C21.7875 4.11207 21.2755 4.56008 20.7635 5.00808C20.4435 5.32809 20.1235 5.58409 19.8035 5.9041C19.4835 6.1601 19.2275 6.28811 18.8435 6.2241C18.6515 6.1601 18.3955 6.0961 18.1395 6.0321L6.17127 1.55203C5.78726 1.42402 5.40326 1.29602 4.95525 1.16802C4.05924 0.912015 3.41923 1.16802 3.03522 1.48802C2.33121 2.00003 1.7552 2.64004 1.37119 3.34405C0.923185 4.04807 1.05119 4.81608 1.6912 5.39209C1.9472 5.64809 2.20321 5.84009 2.39521 5.9681C4.57124 7.50412 6.81128 8.97615 8.98731 10.5122C9.81933 11.0882 10.5873 11.6002 11.1633 12.3042C11.2914 12.4962 11.4194 12.6242 11.5474 12.8162L7.38729 16.7843C6.93928 17.2323 6.49127 17.6163 6.04326 18.0643C5.97926 18.0643 5.91526 18.0003 5.85126 18.0003L5.14725 17.6803C4.57124 17.4243 4.05923 17.1043 3.48322 16.8483C2.77921 16.5283 2.0112 16.5923 1.43519 17.1043C1.11519 17.3603 0.795181 17.6803 0.475176 18.0003C-0.100834 18.5763 -0.164835 19.2803 0.347173 19.9203C0.475175 20.1123 0.603178 20.2403 0.73118 20.3683L1.9472 21.9044C3.35522 23.7604 4.82724 25.6164 6.29927 27.4084C6.49127 27.6645 6.68327 27.8565 6.93928 27.9845C7.19528 28.1125 7.70729 28.4325 8.3473 28.2405C9.11531 27.9845 9.69132 27.4724 9.94733 26.7044C10.2033 26.0644 10.2673 25.3604 10.0113 24.5924L9.88333 24.0164C9.75532 23.5044 9.62732 22.9924 9.49932 22.4804C11.2273 21.1363 12.9554 19.8563 14.6194 18.5123L15.4514 17.8723L15.6434 18.1923C16.0914 18.8963 16.4754 19.6003 16.7314 20.3683L19.6755 27.9205C19.8675 28.3685 19.9955 28.8165 20.1875 29.2005C20.5075 29.9045 21.0195 30.2885 21.6595 30.2885C21.9155 30.2885 22.1715 30.2245 22.4275 30.0965C22.6195 30.0325 22.8115 29.9685 22.9395 29.8405C23.9636 29.3285 24.6036 28.6245 24.8596 27.6645C25.0516 26.8964 24.9876 26.1924 24.9236 25.6804L23.3875 14.4802C23.2595 13.5842 23.1315 12.6242 23.0035 11.7282C22.9395 11.2802 23.0675 11.0242 23.3875 10.7682L24.7316 9.61616C25.8196 8.72015 26.8436 7.82413 27.9316 6.92812C28.8276 6.16011 29.4036 5.45609 29.9157 4.68808C30.2997 4.11207 30.6837 3.40806 30.8757 2.64005C31.1957 1.80803 30.8757 0.91202 30.1717 0.400012ZM29.6596 2.38404C29.4676 3.02405 29.1476 3.60006 28.8276 4.11207C28.4436 4.75208 27.8676 5.39209 27.0996 6.0321C26.0756 6.92812 24.9876 7.82413 23.8996 8.72015L22.6195 9.80816C21.9155 10.3202 21.5955 11.0882 21.7235 11.9842C21.8515 12.8802 21.9795 13.7762 22.1075 14.7362L23.6435 25.9364C23.7075 26.5764 23.7075 27.0244 23.5795 27.4084C23.3875 27.9845 23.0035 28.4325 22.3635 28.7525C22.2355 28.8165 22.1075 28.8805 21.9155 28.9445C21.5315 29.0725 21.4035 29.0085 21.2755 28.6885C21.0835 28.3045 20.9555 27.8565 20.7635 27.4084L17.9475 19.8563C17.6275 19.0243 17.1794 18.2563 16.7314 17.4883L16.3474 16.8483L15.7714 16.0163L13.7874 17.4883C11.9954 18.8323 10.2033 20.2403 8.4753 21.5844C8.0273 21.9044 8.0913 22.2884 8.1553 22.5444C8.2833 23.1204 8.4753 23.6964 8.60331 24.2724L8.73131 24.8484C8.85931 25.3604 8.85931 25.8084 8.66731 26.1924C8.4753 26.5764 8.2193 26.8324 7.77129 26.9604C7.77129 26.9604 7.64329 26.9604 7.45129 26.8324C7.32328 26.7684 7.19528 26.6404 7.13128 26.5124C5.65926 24.6564 4.25124 22.8644 2.84321 21.0083L1.62719 19.4723C1.49919 19.3443 1.43519 19.2163 1.30719 19.0243C1.24319 18.9603 1.24319 18.8963 1.24319 18.8963C1.24319 18.8963 1.30719 18.8323 1.37119 18.7683C1.62719 18.5123 1.9472 18.1923 2.2032 18.0003C2.39521 17.8083 2.65121 17.8083 2.90721 17.9363C3.48322 18.1923 3.99523 18.4483 4.57124 18.7683L5.27525 19.0883C5.40325 19.1523 5.53126 19.2163 5.65926 19.2803C5.97926 19.4723 6.36327 19.4083 6.68328 19.1523C7.19528 18.6403 7.70729 18.1923 8.2193 17.6803L12.6354 13.5202L13.1474 13.0082L12.8274 12.5602C12.7634 12.4322 12.6994 12.3682 12.6354 12.2402C12.4434 11.9842 12.3154 11.7282 12.1234 11.5362C11.4194 10.7042 10.5873 10.0642 9.69133 9.48816C7.51529 8.01613 5.27525 6.48011 3.09922 4.94408C2.90722 4.81608 2.71521 4.68808 2.52321 4.49607C2.33121 4.30407 2.33121 4.24007 2.45921 4.11207C2.77921 3.53606 3.29122 3.02405 3.86723 2.57604C3.99524 2.44804 4.18724 2.38404 4.63524 2.51204C5.08325 2.64004 5.46726 2.76805 5.78726 2.89605L17.7555 7.37612C18.0755 7.50412 18.3955 7.56813 18.6515 7.63213C19.3555 7.76013 20.0595 7.56813 20.6355 7.05612C20.9555 6.73611 21.2755 6.48011 21.5955 6.1601C22.1075 5.7121 22.6195 5.26409 23.1315 4.81608C24.2196 3.92007 25.1156 3.15206 25.9476 2.51205C26.7156 1.93604 27.6116 1.55203 28.5716 1.42403C28.8916 1.36003 29.1476 1.42403 29.4036 1.55203C29.6596 1.61603 29.7877 2.00004 29.6596 2.38404Z" fill="white"/>
</svg>
