<svg width="50" height="50" viewBox="0 0 50 50" fill="none" xmlns="http://www.w3.org/2000/svg">
<path d="M49.1936 37.9033H44.3548V35.4839H45.1613C45.6067 35.4839 45.9677 35.1228 45.9677 34.6775V26.613C45.9677 26.5984 45.9607 26.587 45.9599 26.5728C45.9559 26.4901 45.9394 26.4082 45.9106 26.3306C45.9063 26.3184 45.9047 26.305 45.9 26.2928C45.8681 26.2188 45.8256 26.1503 45.7732 26.0888L41.129 20.6701V14.5162C41.1263 12.2902 39.3228 10.4867 37.0968 10.4839H12.9032C10.6772 10.4867 8.87372 12.2902 8.87097 14.5162V20.6701L4.22678 26.0881C4.17441 26.1491 4.13188 26.218 4.09999 26.292C4.09526 26.3042 4.09447 26.3176 4.08936 26.3298C4.06061 26.4074 4.04368 26.4889 4.04013 26.572C4.04013 26.5862 4.03226 26.5976 4.03226 26.6122V34.6775C4.03226 35.1228 4.39335 35.4839 4.83871 35.4839H5.64516V37.9033H0.806452C0.361092 37.9033 0 38.2644 0 38.7097C0 39.1551 0.361092 39.5162 0.806452 39.5162H49.1936C49.6389 39.5162 50 39.1551 50 38.7097C50 38.2644 49.6389 37.9033 49.1936 37.9033ZM42.7419 37.0968H41.129V35.4839H42.7419V37.0968ZM44.3548 33.871H5.64516V27.4194H44.3548V33.871ZM10.4839 14.5162C10.4839 13.1801 11.5671 12.0968 12.9032 12.0968H37.0968C38.4329 12.0968 39.5161 13.1801 39.5161 14.5162V20.1613H37.9032V17.742C37.9032 16.4059 36.82 15.3226 35.4839 15.3226H29.0323C27.6962 15.3226 26.6129 16.4059 26.6129 17.742V20.1613H23.3871V17.742C23.3871 16.4059 22.3038 15.3226 20.9677 15.3226H14.5161C13.18 15.3226 12.0968 16.4059 12.0968 17.742V20.1613H10.4839V14.5162ZM36.2903 20.9678C36.2903 21.4132 35.9292 21.7742 35.4839 21.7742H29.0323C28.5869 21.7742 28.2258 21.4132 28.2258 20.9678V17.742C28.2258 17.2966 28.5869 16.9355 29.0323 16.9355H35.4839C35.9292 16.9355 36.2903 17.2966 36.2903 17.742V20.9678ZM21.7742 20.9678C21.7742 21.4132 21.4131 21.7742 20.9677 21.7742H14.5161C14.0708 21.7742 13.7097 21.4132 13.7097 20.9678V17.742C13.7097 17.2966 14.0708 16.9355 14.5161 16.9355H20.9677C21.4131 16.9355 21.7742 17.2966 21.7742 17.742V20.9678ZM10.0484 21.7742H12.2452C12.5858 22.7374 13.4947 23.3828 14.5161 23.3871H20.9677C21.9892 23.3828 22.898 22.7374 23.2386 21.7742H26.7614C27.102 22.7374 28.0108 23.3828 29.0323 23.3871H35.4839C36.5053 23.3828 37.4142 22.7374 37.7548 21.7742H39.9516L43.4082 25.8065H6.5918L10.0484 21.7742ZM8.87097 35.4839V37.0968H7.25806V35.4839H8.87097ZM10.4839 37.9033V35.4839H39.5161V37.9033H10.4839Z" fill="black"/>
<path d="M41.1291 32.2581H42.742C43.1873 32.2581 43.5484 31.897 43.5484 31.4516C43.5484 31.0063 43.1873 30.6452 42.742 30.6452H41.1291C40.6837 30.6452 40.3226 31.0063 40.3226 31.4516C40.3226 31.897 40.6837 32.2581 41.1291 32.2581Z" fill="black"/>
<path d="M33.871 32.2581H38.7097C39.1551 32.2581 39.5162 31.897 39.5162 31.4516C39.5162 31.0063 39.1551 30.6452 38.7097 30.6452H33.871C33.4256 30.6452 33.0645 31.0063 33.0645 31.4516C33.0645 31.897 33.4256 32.2581 33.871 32.2581Z" fill="black"/>
<path d="M12.0968 14.5161H14.5162C14.9615 14.5161 15.3226 14.155 15.3226 13.7097C15.3226 13.2643 14.9615 12.9032 14.5162 12.9032H12.0968C11.6515 12.9032 11.2904 13.2643 11.2904 13.7097C11.2904 14.155 11.6515 14.5161 12.0968 14.5161Z" fill="black"/>
</svg>
