<svg width="484" height="596" viewBox="0 0 484 596" fill="none" xmlns="http://www.w3.org/2000/svg">
<g clip-path="url(#clip0)">
<path d="M54.4204 149.155C55.4445 149.449 56.4838 149.386 57.6469 148.936C59.6165 148.019 61.1359 146.762 62.4224 145.101C63.5229 143.611 64.7782 141.842 66.1886 139.793C66.8395 138.784 67.4904 137.776 68.1412 136.767C68.5286 136.069 68.9471 135.479 69.3344 134.781C69.7529 134.191 70.125 133.849 70.8075 133.771C71.1643 133.787 71.6297 133.771 72.0951 133.755L94.5743 135.54C95.2879 135.57 96.0015 135.601 96.8237 135.6C98.4681 135.599 99.4294 134.854 99.9253 134.125C100.871 132.914 101.537 131.548 101.846 130.168C102.264 128.756 101.674 127.515 100.308 126.849C99.7498 126.539 99.2222 126.338 98.8343 126.214C94.3966 124.665 89.8815 123.257 85.4438 121.708C83.7525 121.135 82.2009 120.64 80.8817 119.726C80.5713 119.462 80.292 119.307 79.9815 119.044L85.1106 110.291C85.6529 109.313 86.2263 108.444 86.7687 107.467C86.8772 107.436 87.0169 107.513 87.1255 107.482L88.4752 107.683C89.5767 107.837 90.6008 108.131 91.7023 108.286C93.052 108.486 94.3238 108.005 95.0521 106.856C95.4706 106.266 95.8579 105.568 96.2453 104.87C96.9426 103.613 96.7091 102.387 95.5296 101.551C95.2191 101.287 94.9398 101.132 94.6605 100.977L91.8514 98.9623C88.561 96.4979 85.1621 94.0646 81.7943 91.7398C81.3443 91.3989 80.9253 91.1664 80.4288 91.0737C79.9323 90.9809 78.9083 90.6868 77.9159 91.3235C76.7374 92.1309 76.0091 93.2794 75.9479 94.7066C75.8246 95.9167 76.0581 97.142 76.8655 98.3205L77.3625 99.2354C77.8284 100.042 78.2944 100.848 78.7603 101.655C76.4819 104.774 74.1724 107.785 72.0027 110.874L70.9022 112.363L70.421 111.914C69.319 110.937 68.3255 109.93 67.5181 108.751L58.8545 97.3704C58.3111 96.7037 57.8763 96.0059 57.364 95.4477C56.4791 94.409 55.424 94.0063 54.3383 94.3173C53.904 94.4417 53.5008 94.6746 53.1288 95.0161C52.8341 95.218 52.5395 95.4198 52.3846 95.6992C50.8962 97.0653 50.1526 98.5705 50.1848 100.323C50.2322 101.72 50.6828 102.883 51.0402 103.72L59.0877 121.974C59.7401 123.431 60.4237 124.998 61.0762 126.456C61.4025 127.184 61.3097 127.681 60.8912 128.271L59.171 130.878C57.7607 132.927 56.4589 134.944 55.0486 136.993C53.9017 138.731 53.2667 140.205 52.7713 141.757C52.3997 142.92 52.0903 144.301 52.1378 145.697C51.9992 147.264 52.9774 148.629 54.4204 149.155ZM54.325 145.541C54.3397 144.362 54.6027 143.229 54.8968 142.205C55.2373 140.933 55.9034 139.567 56.8953 138.108C58.1971 136.091 59.6074 134.042 61.0178 131.994L62.6605 129.526C63.606 128.315 63.7757 126.857 63.1232 125.399C62.4707 123.942 61.8182 122.484 61.1347 120.917L53.0872 102.664C52.6676 101.609 52.45 100.849 52.4805 100.136C52.5264 99.0654 52.9601 98.1188 53.8903 97.265C54.0764 97.0942 54.2624 96.9235 54.557 96.7216C55.1463 96.3179 55.3945 96.3643 55.7671 96.8449C56.2794 97.4031 56.7142 98.1009 57.2576 98.7676L65.704 110.211C66.6511 111.466 67.7842 112.552 68.9174 113.637L69.8798 114.536L71.2611 115.667L73.9116 112.206C76.2985 109.056 78.6544 105.797 80.9327 102.677C81.5372 101.916 81.2421 101.296 81.0091 100.893C80.5121 99.978 79.9066 99.0942 79.4095 98.1792L78.9125 97.2643C78.4466 96.4579 78.229 95.6979 78.3681 94.9532C78.5072 94.2085 78.8171 93.6499 79.5149 93.215C79.5149 93.215 79.7321 93.1528 80.12 93.2767C80.3682 93.3231 80.6475 93.478 80.8183 93.6641C84.2172 96.0974 87.4764 98.4532 90.7667 100.918L93.5759 102.932C93.8552 103.087 94.0259 103.273 94.3364 103.537C94.476 103.614 94.5071 103.723 94.5071 103.723C94.5071 103.723 94.4297 103.863 94.3522 104.002C94.0423 104.561 93.6549 105.259 93.3139 105.709C93.0815 106.128 92.6472 106.253 92.1508 106.16C91.0493 106.006 90.0563 105.82 88.9237 105.557L87.574 105.356C87.3257 105.31 87.0775 105.264 86.8293 105.217C86.1931 105.047 85.5728 105.342 85.1543 105.932C84.5345 107.049 83.8837 108.058 83.2639 109.175L77.7938 118.378L77.174 119.495L77.9345 120.1C78.1053 120.286 78.245 120.363 78.4157 120.549C78.8658 120.89 79.2073 121.262 79.6263 121.495C81.2249 122.564 82.9472 123.246 84.7471 123.787C89.1536 125.227 93.6999 126.745 98.1376 128.293C98.5255 128.417 98.9134 128.541 99.3324 128.773C99.7514 129.006 99.7825 129.114 99.6275 129.393C99.3645 130.526 98.7447 131.643 97.9853 132.683C97.8303 132.963 97.5357 133.164 96.7135 133.165C95.8914 133.165 95.1778 133.135 94.5727 133.073L72.0935 131.288C71.4884 131.227 70.9145 131.274 70.4491 131.289C69.1926 131.414 68.0917 132.082 67.3633 133.231C66.9759 133.929 66.5575 134.519 66.1701 135.217C65.5192 136.226 64.8683 137.234 64.2174 138.243C62.8071 140.292 61.6603 142.03 60.5598 143.52C59.5369 144.87 58.2035 145.957 56.6371 146.641C56.1254 146.905 55.66 146.92 55.1635 146.828C54.6981 146.844 54.2944 146.254 54.325 145.541Z" fill="white"/>
</g>
<path fill-rule="evenodd" clip-rule="evenodd" d="M90.9185 91.6022C91.7128 90.4748 92.5102 89.363 93.3104 88.2667L94.9258 89.4458C94.1322 90.5331 93.3414 91.6358 92.5534 92.7541L90.9185 91.6022ZM95.7199 85.0241C97.3319 82.8931 98.9552 80.8236 100.589 78.8146L102.141 80.0765C100.522 82.067 98.9131 84.1181 97.3149 86.2307L95.7199 85.0241ZM103.186 75.6818C104.942 73.6049 106.709 71.5964 108.486 69.6549L109.962 71.0054C108.202 72.9271 106.453 74.9159 104.714 76.973L103.186 75.6818ZM111.16 66.7928C113.06 64.8009 114.971 62.884 116.892 61.0408L118.276 62.4839C116.377 64.3062 114.487 66.2021 112.608 68.1731L111.16 66.7928ZM119.786 58.3255C121.796 56.4834 123.816 54.7203 125.844 53.0347L127.122 54.573C125.119 56.2375 123.124 57.9792 121.138 59.7997L119.786 58.3255ZM128.959 50.5121C131.088 48.8329 133.226 47.2373 135.371 45.7236L136.524 47.3577C134.408 48.8506 132.299 50.4248 130.198 52.0824L128.959 50.5121ZM138.7 43.4438C140.953 41.9468 143.214 40.5385 145.48 39.2169L146.487 40.9445C144.255 42.2463 142.028 43.634 139.806 45.1097L138.7 43.4438ZM149.007 37.2314C151.384 35.9415 153.765 34.7454 156.149 33.6405L156.99 35.4551C154.645 36.5421 152.301 37.7193 149.961 38.9892L149.007 37.2314ZM159.851 31.9987C162.342 30.9436 164.834 29.9865 167.325 29.1247L167.979 31.0148C165.53 31.8618 163.081 32.8026 160.632 33.8402L159.851 31.9987ZM171.169 27.8698C173.755 27.0761 176.338 26.3835 178.916 25.7891L179.366 27.738C176.834 28.3217 174.296 29.0019 171.756 29.7818L171.169 27.8698ZM182.864 24.9545C185.518 24.4438 188.165 24.0358 190.803 23.727L191.035 25.7135C188.446 26.0165 185.847 26.417 183.242 26.9184L182.864 24.9545ZM194.809 23.3334C197.5 23.1194 200.179 23.0077 202.843 22.9946L202.853 24.9946C200.238 25.0075 197.608 25.1171 194.967 25.3272L194.809 23.3334ZM206.861 23.0493C209.555 23.136 212.232 23.3227 214.888 23.6054L214.676 25.5942C212.068 25.3167 209.441 25.1334 206.796 25.0483L206.861 23.0493ZM218.871 24.1031C221.534 24.4854 224.175 24.9637 226.79 25.5339L226.364 27.488C223.796 26.9279 221.202 26.4582 218.587 26.0829L218.871 24.1031ZM230.699 26.4594C233.301 27.1244 235.874 27.8802 238.417 28.7226L237.788 30.6211C235.289 29.7931 232.76 29.0504 230.203 28.3971L230.699 26.4594ZM242.21 30.0525C244.725 30.9826 247.207 31.9976 249.651 33.0933L248.833 34.9183C246.429 33.8407 243.989 32.8427 241.517 31.9283L242.21 30.0525ZM215.065 165.784C215.223 163.241 215.58 160.659 216.137 158.07L218.092 158.491C217.556 160.984 217.213 163.467 217.061 165.908L215.065 165.784ZM217.09 154.3C217.802 151.848 218.696 149.405 219.771 147L221.597 147.817C220.559 150.138 219.697 152.494 219.011 154.858L217.09 154.3ZM215.217 173.579C215.082 172.299 215.003 170.999 214.978 169.682L216.978 169.645C217.001 170.906 217.078 172.149 217.206 173.37C217.359 174.826 217.588 176.254 217.885 177.651L215.929 178.066C215.618 176.603 215.378 175.107 215.217 173.579ZM221.476 143.509C222.675 141.252 224.041 139.043 225.576 136.907L227.2 138.074C225.718 140.136 224.4 142.269 223.243 144.447L221.476 143.509ZM220.651 190.772C219.247 188.165 218.034 185.386 217.095 182.452L219 181.842C219.899 184.65 221.061 187.315 222.412 189.823L220.651 190.772ZM227.95 133.828C229.575 131.861 231.355 129.972 233.292 128.184L234.648 129.653C232.779 131.379 231.061 133.203 229.492 135.102L227.95 133.828ZM253.291 34.7975C255.699 35.9732 258.068 37.2276 260.394 38.5564L259.403 40.2931C257.113 38.9854 254.782 37.7513 252.414 36.5946L253.291 34.7975ZM236.234 125.645C238.212 124.05 240.33 122.555 242.59 121.181L243.629 122.889C241.445 124.218 239.399 125.662 237.489 127.202L236.234 125.645ZM228.457 201.815C226.517 199.647 224.653 197.256 222.962 194.66L224.637 193.568C226.269 196.072 228.07 198.383 229.947 200.481L228.457 201.815ZM245.974 119.268C248.212 118.097 250.572 117.038 253.057 116.106L253.759 117.979C251.351 118.881 249.066 119.907 246.902 121.04L245.974 119.268ZM263.851 40.6039C266.134 42.0051 268.372 43.4785 270.564 45.0198L269.413 46.6557C267.255 45.138 265.051 43.6875 262.805 42.3084L263.851 40.6039ZM238.527 210.836C236.278 209.25 233.913 207.315 231.585 205.065L232.975 203.627C235.229 205.806 237.515 207.675 239.679 209.201L238.527 210.836ZM256.729 114.852C257.949 114.475 259.197 114.128 260.471 113.812C261.753 113.493 263.034 113.188 264.314 112.896L264.759 114.846C263.492 115.135 262.223 115.437 260.952 115.753C259.714 116.06 258.504 116.397 257.32 116.763L256.729 114.852ZM273.813 47.3813C275.955 48.9884 278.048 50.6613 280.089 52.3959L278.794 53.9198C276.784 52.2112 274.722 50.5636 272.613 48.981L273.813 47.3813ZM246.506 215.235C245.257 214.781 243.852 214.12 242.351 213.271L243.336 211.53C244.764 212.338 246.067 212.948 247.189 213.356C248.528 213.842 249.861 214.268 251.187 214.635L250.654 216.562C249.277 216.181 247.894 215.74 246.506 215.235ZM268.176 112.055C270.774 111.517 273.366 111.037 275.952 110.621L276.27 112.595C273.715 113.007 271.152 113.481 268.582 114.013L268.176 112.055ZM283.11 55.043C285.098 56.8379 287.031 58.6925 288.908 60.6025L287.481 62.0041C285.633 60.1224 283.728 58.2955 281.77 56.5273L283.11 55.043ZM263.536 218.46C260.699 218.402 257.812 218.108 254.891 217.552L255.266 215.587C258.075 216.123 260.85 216.405 263.577 216.46L263.536 218.46ZM279.864 110.04C282.495 109.682 285.118 109.394 287.732 109.181L287.895 111.174C285.318 111.384 282.73 111.668 280.133 112.021L279.864 110.04ZM291.679 63.5085C293.499 65.4746 295.26 67.4941 296.958 69.5629L295.412 70.8319C293.739 68.7937 292.004 66.8041 290.211 64.8671L291.679 63.5085ZM299.46 72.7048C301.098 74.8256 302.671 76.9938 304.177 79.2053L302.523 80.3308C301.04 78.1524 299.49 76.0165 297.877 73.9272L299.46 72.7048ZM276.487 217.106C273.694 217.748 270.822 218.18 267.888 218.366L267.761 216.37C270.583 216.191 273.347 215.776 276.039 215.157L276.487 217.106ZM291.685 108.917C294.336 108.779 296.977 108.722 299.607 108.753L299.583 110.753C296.998 110.723 294.399 110.778 291.788 110.914L291.685 108.917ZM200.51 559C200.51 559 200.51 559 200.51 558C200.51 557 200.51 557 200.51 557L200.526 557L200.575 557C200.619 557 200.685 557 200.773 556.999C200.948 556.998 201.211 556.996 201.554 556.991C202.242 556.982 203.256 556.963 204.56 556.926L204.617 558.925C203.303 558.963 202.279 558.981 201.581 558.991C201.233 558.996 200.966 558.998 200.786 558.999C200.696 559 200.628 559 200.581 559L200.529 559L200.512 559L200.51 559ZM306.388 82.5612C307.829 84.8213 309.199 87.1229 310.497 89.4618L308.748 90.4319C307.47 88.1289 306.12 85.8623 304.701 83.6362L306.388 82.5612ZM288.747 212.774C286.16 214.019 283.466 215.096 280.679 215.968L280.082 214.06C282.771 213.218 285.376 212.177 287.88 210.972L288.747 212.774ZM216.924 558.315C213.81 558.528 211.044 558.675 208.712 558.776L208.626 556.778C210.942 556.678 213.691 556.532 216.788 556.319L216.924 558.315ZM303.57 108.867C306.219 108.99 308.855 109.205 311.478 109.52L311.24 111.505C308.667 111.197 306.08 110.985 303.478 110.865L303.57 108.867ZM312.392 93.0074C313.619 95.3916 314.771 97.8113 315.843 100.262L314.011 101.064C312.956 98.6519 311.822 96.2701 310.614 93.9228L312.392 93.0074ZM299.825 205.994C297.546 207.714 295.129 209.316 292.589 210.759L291.601 209.02C294.062 207.622 296.408 206.068 298.62 204.398L299.825 205.994ZM317.668 110.455C316.916 110.317 316.163 110.189 315.409 110.068L315.094 112.043C317.653 112.451 320.195 112.96 322.721 113.576L323.194 111.633C322.108 111.368 321.019 111.123 319.927 110.896C319.154 108.565 318.309 106.255 317.395 103.97L315.538 104.712C316.297 106.61 317.007 108.525 317.668 110.455ZM229.201 557.255C226.322 557.555 223.585 557.803 221.026 558.009L220.866 556.016C223.41 555.811 226.131 555.564 228.994 555.266L229.201 557.255ZM321.314 115.368C322.059 117.945 322.715 120.545 323.281 123.164L321.326 123.586C320.77 121.013 320.125 118.457 319.393 115.923L321.314 115.368ZM309.398 197.233C307.506 199.328 305.432 201.357 303.197 203.277L301.894 201.76C304.065 199.896 306.078 197.925 307.914 195.892L309.398 197.233ZM324.061 127.108C324.534 129.747 324.914 132.402 325.197 135.07L323.208 135.281C322.931 132.662 322.557 130.054 322.092 127.461L324.061 127.108ZM241.443 555.75C238.645 556.148 235.92 556.497 233.291 556.803L233.059 554.817C235.673 554.512 238.382 554.166 241.162 553.77L241.443 555.75ZM327.033 112.654C329.562 113.383 332.074 114.223 334.567 115.178L333.852 117.046C331.412 116.111 328.953 115.29 326.479 114.575L327.033 112.654ZM317.07 186.734C315.695 189.143 314.062 191.558 312.199 193.918L310.629 192.679C312.434 190.392 314.01 188.06 315.333 185.743L317.07 186.734ZM325.548 139.077C325.733 141.75 325.819 144.433 325.803 147.121L323.803 147.109C323.819 144.471 323.734 141.839 323.553 139.215L325.548 139.077ZM325.703 151.138C325.585 153.811 325.365 156.488 325.038 159.163L323.053 158.921C323.373 156.297 323.589 153.672 323.705 151.049L325.703 151.138ZM320.662 178.787C320.221 180.127 319.685 181.489 319.059 182.86L317.24 182.03C317.837 180.721 318.346 179.428 318.762 178.162C319.177 176.899 319.565 175.633 319.927 174.365L321.85 174.914C321.481 176.208 321.085 177.499 320.662 178.787ZM324.475 163.138C324.048 165.772 323.517 168.404 322.878 171.028L320.935 170.554C321.562 167.982 322.082 165.402 322.5 162.818L324.475 163.138ZM253.607 553.767C250.867 554.274 248.16 554.732 245.505 555.146L245.197 553.169C247.835 552.759 250.523 552.304 253.243 551.8L253.607 553.767ZM338.247 116.679C340.648 117.718 343.031 118.869 345.395 120.137L344.449 121.9C342.135 120.658 339.802 119.531 337.453 118.514L338.247 116.679ZM265.68 551.235C262.991 551.87 260.307 552.453 257.644 552.988L257.25 551.027C259.892 550.496 262.555 549.918 265.221 549.288L265.68 551.235ZM348.855 122.087C351.097 123.412 353.321 124.847 355.526 126.396L354.376 128.032C352.214 126.513 350.034 125.107 347.838 123.809L348.855 122.087ZM358.731 128.741C359.774 129.534 360.812 130.354 361.846 131.201C362.818 131.998 363.826 132.851 364.866 133.757L363.552 135.265C362.526 134.371 361.533 133.531 360.578 132.748C359.563 131.916 358.543 131.111 357.52 130.332L358.731 128.741ZM277.608 548.056C274.978 548.844 272.329 549.575 269.675 550.253L269.18 548.315C271.809 547.643 274.432 546.919 277.034 546.14L277.608 548.056ZM311.882 406.05C311.014 408.498 310.31 410.966 309.751 413.449L307.8 413.009C308.376 410.452 309.101 407.908 309.997 405.381L311.882 406.05ZM309.009 417.239C308.583 419.785 308.297 422.345 308.132 424.913L306.136 424.785C306.305 422.154 306.598 419.527 307.036 416.909L309.009 417.239ZM367.807 136.386C369.632 138.057 371.535 139.872 373.499 141.822L372.09 143.241C370.145 141.31 368.26 139.513 366.456 137.861L367.807 136.386ZM289.311 544.089C286.76 545.065 284.164 545.977 281.539 546.829L280.922 544.927C283.516 544.085 286.08 543.184 288.596 542.221L289.311 544.089ZM314.904 398.948C314.321 400.113 313.78 401.284 313.28 402.459L311.44 401.676C311.956 400.463 312.514 399.255 313.116 398.052C313.731 396.824 314.364 395.63 315.013 394.469L316.758 395.445C316.124 396.579 315.506 397.746 314.904 398.948ZM307.971 428.781C307.921 431.36 307.982 433.945 308.133 436.531L306.136 436.648C305.983 434.015 305.921 431.378 305.972 428.742L307.971 428.781ZM308.424 440.405C308.659 442.982 308.974 445.558 309.348 448.127L307.369 448.416C306.99 445.817 306.671 443.205 306.432 440.586L308.424 440.405ZM323.226 385.633C321.671 387.642 320.178 389.782 318.753 392.068L317.056 391.01C318.516 388.667 320.048 386.471 321.644 384.409L323.226 385.633ZM309.953 451.976C310.383 454.545 310.863 457.103 311.372 459.646L309.411 460.039C308.899 457.48 308.415 454.9 307.98 452.307L309.953 451.976ZM331.12 376.951C329.255 378.7 327.448 380.575 325.708 382.595L324.193 381.289C325.981 379.215 327.837 377.288 329.752 375.492L331.12 376.951ZM376.276 144.627C378.048 146.448 379.859 148.369 381.698 150.384L380.221 151.732C378.396 149.733 376.599 147.827 374.842 146.021L376.276 144.627ZM296.925 540.91C295.679 541.477 294.417 542.027 293.141 542.559L292.371 540.713C293.628 540.189 294.87 539.648 296.096 539.09C297.319 538.533 298.476 537.954 299.571 537.355L300.532 539.109C299.392 539.733 298.19 540.334 296.925 540.91ZM312.161 463.474C312.704 466.043 313.266 468.591 313.825 471.117L311.873 471.55C311.313 469.024 310.749 466.467 310.204 463.887L312.161 463.474ZM340.297 369.581C338.164 371.05 336.081 372.629 334.056 374.338L332.766 372.81C334.844 371.056 336.98 369.438 339.163 367.934L340.297 369.581ZM314.672 474.938C315.244 477.53 315.803 480.093 316.322 482.621L314.363 483.023C313.846 480.511 313.291 477.958 312.719 475.369L314.672 474.938ZM384.324 153.304C386.028 155.229 387.75 157.228 389.479 159.299L387.945 160.581C386.227 158.526 384.518 156.54 382.827 154.63L384.324 153.304ZM310.138 531.925C308.38 533.752 306.333 535.458 303.963 537.037L302.854 535.372C305.112 533.868 307.047 532.253 308.697 530.538L310.138 531.925ZM317.087 486.476C317.587 489.106 318.03 491.695 318.387 494.234L316.406 494.513C316.055 492.013 315.618 489.457 315.122 486.85L317.087 486.476ZM350.416 363.531C348.098 364.739 345.816 366.031 343.58 367.428L342.521 365.732C344.805 364.304 347.133 362.987 349.491 361.758L350.416 363.531ZM318.871 498.164C319.153 500.87 319.315 503.516 319.319 506.091L317.319 506.093C317.316 503.6 317.158 501.024 316.882 498.372L318.871 498.164ZM316.662 521.806C315.68 524.282 314.392 526.636 312.746 528.85L311.141 527.657C312.678 525.589 313.882 523.389 314.803 521.068L316.662 521.806ZM391.975 162.329C393.605 164.337 395.237 166.405 396.865 168.53L395.277 169.746C393.661 167.637 392.04 165.583 390.422 163.59L391.975 162.329ZM319.187 510.075C318.996 512.803 318.591 515.443 317.919 517.979L315.986 517.466C316.621 515.07 317.009 512.557 317.192 509.936L319.187 510.075ZM361.15 358.547C358.725 359.56 356.319 360.627 353.941 361.768L353.076 359.965C355.489 358.806 357.928 357.726 360.379 356.702L361.15 358.547ZM399.235 171.669C400.785 173.753 402.328 175.886 403.854 178.065L402.216 179.212C400.701 177.049 399.17 174.932 397.63 172.863L399.235 171.669ZM372.222 354.244C369.749 355.155 367.276 356.085 364.814 357.059L364.078 355.199C366.561 354.217 369.05 353.281 371.531 352.367L372.222 354.244ZM406.093 181.312C407.557 183.468 409.003 185.666 410.425 187.902L408.737 188.975C407.326 186.757 405.891 184.575 404.438 182.435L406.093 181.312ZM377.594 352.287C377.047 352.485 376.5 352.683 375.952 352.882L375.27 351.002C375.821 350.802 376.372 350.603 376.921 350.403C378.871 349.697 380.81 348.994 382.735 348.283L383.428 350.159C381.495 350.873 379.547 351.579 377.594 352.287ZM412.518 191.253C413.887 193.481 415.228 195.744 416.537 198.039L414.799 199.029C413.502 196.754 412.171 194.51 410.814 192.299L412.518 191.253ZM418.463 201.483C419.724 203.783 420.949 206.114 422.134 208.471L420.347 209.369C419.174 207.034 417.959 204.725 416.709 202.444L418.463 201.483ZM394.566 345.782C392.135 346.82 389.66 347.804 387.158 348.76L386.445 346.891C388.93 345.942 391.38 344.968 393.78 343.943L394.566 345.782ZM423.873 212.012C425.01 214.384 426.104 216.78 427.147 219.199L425.311 219.991C424.278 217.598 423.196 215.226 422.07 212.877L423.873 212.012ZM405.387 340.533C403.063 341.832 400.671 343.031 398.227 344.158L397.389 342.342C399.795 341.232 402.14 340.056 404.412 338.787L405.387 340.533ZM428.675 222.841C429.668 225.283 430.609 227.745 431.492 230.224L429.607 230.894C428.735 228.444 427.805 226.01 426.822 223.595L428.675 222.841ZM415.432 333.842C413.328 335.527 411.128 337.066 408.85 338.489L407.791 336.792C410.01 335.406 412.145 333.912 414.183 332.28L415.432 333.842ZM432.772 233.96C433.598 236.468 434.362 238.993 435.058 241.53L433.129 242.059C432.443 239.556 431.689 237.064 430.873 234.586L432.772 233.96ZM436.053 245.359C436.683 247.927 437.241 250.506 437.72 253.094L435.753 253.458C435.282 250.91 434.732 248.368 434.111 245.836L436.053 245.359ZM424.067 325.343C422.322 327.47 420.462 329.419 418.501 331.215L417.15 329.741C419.044 328.006 420.838 326.126 422.52 324.075L424.067 325.343ZM438.381 256.999C438.783 259.614 439.101 262.236 439.33 264.862L437.337 265.035C437.112 262.455 436.799 259.876 436.404 257.302L438.381 256.999ZM430.69 315.236C429.412 317.71 428.016 320.001 426.512 322.13L424.878 320.977C426.328 318.923 427.677 316.711 428.913 314.318L430.69 315.236ZM439.605 268.813C439.743 271.455 439.788 274.098 439.732 276.74L437.732 276.697C437.787 274.106 437.744 271.512 437.608 268.918L439.605 268.813ZM433.948 307.821C433.469 309.118 432.962 310.373 432.429 311.588L430.597 310.785C431.114 309.607 431.606 308.388 432.072 307.128C432.525 305.903 432.949 304.675 433.344 303.443L435.249 304.054C434.844 305.314 434.411 306.569 433.948 307.821ZM439.571 280.704C439.414 283.339 439.153 285.972 438.782 288.598L436.802 288.318C437.165 285.747 437.42 283.168 437.575 280.584L439.571 280.704ZM438.146 292.514C437.669 295.104 437.082 297.686 436.378 300.255L434.449 299.727C435.138 297.213 435.712 294.687 436.179 292.152L438.146 292.514Z" fill="#EBEBEB"/>
<path d="M197.01 501C185.761 501 176.62 510.142 176.62 521.391C176.62 525.197 177.673 528.901 179.678 532.096L195.628 558.197C195.9 558.639 196.308 558.911 196.784 558.979C197.429 559.081 198.143 558.809 198.517 558.164L214.512 531.824C216.415 528.697 217.401 525.061 217.401 521.391C217.401 510.142 208.259 501 197.01 501ZM197.01 531.586C191.301 531.586 186.815 526.964 186.815 521.391C186.815 515.783 191.403 511.195 197.01 511.195C202.618 511.195 207.206 515.783 207.206 521.391C207.206 526.93 202.787 531.586 197.01 531.586Z" fill="#FD003A"/>
<path d="M197.01 501V511.195C202.618 511.195 207.206 515.783 207.206 521.391C207.206 526.93 202.787 531.586 197.01 531.586V558.999C197.59 559.012 198.186 558.734 198.517 558.164L214.512 531.824C216.415 528.697 217.401 525.061 217.401 521.391C217.401 510.142 208.259 501 197.01 501Z" fill="#E50027"/>
<defs>
<clipPath id="clip0">
<rect width="82.0685" height="82.0685" fill="white" transform="translate(134.056 134.448) rotate(164.017)"/>
</clipPath>
</defs>
</svg>
