<svg width="21" height="414" viewBox="0 0 21 414" fill="none" xmlns="http://www.w3.org/2000/svg">
<path fill-rule="evenodd" clip-rule="evenodd" d="M10 -4.37114e-08C10.5523 -6.78525e-08 11 0.447715 11 1L11 309C11 309.552 10.5523 310 10 310C9.44773 310 9.00001 309.552 9.00001 309L9 1C9 0.447715 9.44772 -1.95703e-08 10 -4.37114e-08Z" fill="#F1F1F1"/>
<path d="M4.69062 345.24C3.39462 345.24 2.40262 344.872 1.71462 344.136C1.02662 343.4 0.682617 342.36 0.682617 341.016V332.184C0.682617 330.84 1.02662 329.8 1.71462 329.064C2.40262 328.328 3.39462 327.96 4.69062 327.96C5.98662 327.96 6.97862 328.328 7.66662 329.064C8.35462 329.8 8.69862 330.84 8.69862 332.184V341.016C8.69862 342.36 8.35462 343.4 7.66662 344.136C6.97862 344.872 5.98662 345.24 4.69062 345.24ZM4.69062 342.84C5.60262 342.84 6.05862 342.288 6.05862 341.184V332.016C6.05862 330.912 5.60262 330.36 4.69062 330.36C3.77862 330.36 3.32262 330.912 3.32262 332.016V341.184C3.32262 342.288 3.77862 342.84 4.69062 342.84Z" fill="white"/>
<path d="M14.18 332.184H11.42V330.312C12.172 330.312 12.772 330.248 13.22 330.12C13.684 329.992 14.052 329.784 14.324 329.496C14.596 329.192 14.836 328.76 15.044 328.2H16.82V345H14.18V332.184Z" fill="white"/>
<path d="M11.6759 362.2H13.9559L7.33193 379H5.05193L11.6759 362.2Z" fill="white"/>
<path d="M6.61249 413.24C5.31649 413.24 4.32449 412.872 3.63649 412.136C2.94849 411.4 2.60449 410.36 2.60449 409.016V400.184C2.60449 398.84 2.94849 397.8 3.63649 397.064C4.32449 396.328 5.31649 395.96 6.61249 395.96C7.90849 395.96 8.90049 396.328 9.58849 397.064C10.2765 397.8 10.6205 398.84 10.6205 400.184V409.016C10.6205 410.36 10.2765 411.4 9.58849 412.136C8.90049 412.872 7.90849 413.24 6.61249 413.24ZM6.61249 410.84C7.52449 410.84 7.98049 410.288 7.98049 409.184V400.016C7.98049 398.912 7.52449 398.36 6.61249 398.36C5.70049 398.36 5.24449 398.912 5.24449 400.016V409.184C5.24449 410.288 5.70049 410.84 6.61249 410.84Z" fill="white"/>
<path d="M16.2699 413.24C14.9899 413.24 14.0139 412.88 13.3419 412.16C12.6699 411.424 12.3339 410.376 12.3339 409.016V407.696H14.8299V409.208C14.8299 410.296 15.2859 410.84 16.1979 410.84C17.1099 410.84 17.5659 410.296 17.5659 409.208V405.44C17.5659 404.336 17.1099 403.784 16.1979 403.784C15.2859 403.784 14.8299 404.336 14.8299 405.44V405.584H12.3339L12.8139 396.2H19.7739V398.6H15.1659L14.9499 402.608H14.9979C15.4939 401.792 16.2539 401.384 17.2779 401.384C18.2379 401.384 18.9659 401.712 19.4619 402.368C19.9579 403.024 20.2059 403.976 20.2059 405.224V409.016C20.2059 410.376 19.8699 411.424 19.1979 412.16C18.5259 412.88 17.5499 413.24 16.2699 413.24Z" fill="white"/>
<path fill-rule="evenodd" clip-rule="evenodd" d="M10 219C10.5523 219 11 219.448 11 220L11 309C11 309.552 10.5523 310 10 310C9.44772 310 9 309.552 9 309L9 220C9 219.448 9.44772 219 10 219Z" fill="#1E88E5"/>
</svg>
