<svg width="33" height="33" viewBox="0 0 33 33" fill="none" xmlns="http://www.w3.org/2000/svg">
<path d="M19.0313 16.9969L12.798 23.2876C12.5825 23.5051 12.5825 23.8578 12.798 24.0753C13.0136 24.2927 13.3629 24.2927 13.5785 24.0753L20.2021 17.3907C20.4175 17.1732 20.4175 16.8206 20.2021 16.6031L13.5785 9.91851C13.3592 9.70479 13.0098 9.71093 12.798 9.93222C12.5914 10.1481 12.5914 10.4903 12.798 10.7062L19.0313 16.9969Z" fill="#07161A"/>
<path fill-rule="evenodd" clip-rule="evenodd" d="M20.2021 17.3907C20.4175 17.1732 20.4175 16.8206 20.2021 16.6031L13.5785 9.91851C13.3592 9.70479 13.0098 9.71093 12.798 9.93222C12.5938 10.1456 12.5915 10.4826 12.791 10.6988C12.7933 10.7012 12.7956 10.7037 12.798 10.7062L19.0313 16.9969L12.798 23.2876C12.7956 23.29 12.7933 23.2924 12.791 23.2948C12.7911 23.2947 12.791 23.2948 12.791 23.2948C12.5826 23.5128 12.5849 23.8602 12.798 24.0753C13.0136 24.2927 13.3629 24.2927 13.5785 24.0753L20.2021 17.3907Z" fill="white"/>
<path fill-rule="evenodd" clip-rule="evenodd" d="M16.5 32.0294C25.0767 32.0294 32.0294 25.0767 32.0294 16.5C32.0294 7.92334 25.0767 0.970588 16.5 0.970588C7.92334 0.970588 0.970588 7.92334 0.970588 16.5C0.970588 25.0767 7.92334 32.0294 16.5 32.0294ZM16.5 33C25.6127 33 33 25.6127 33 16.5C33 7.3873 25.6127 0 16.5 0C7.3873 0 0 7.3873 0 16.5C0 25.6127 7.3873 33 16.5 33Z" fill="white"/>
</svg>
