<svg width="50" height="50" viewBox="0 0 50 50" fill="none" xmlns="http://www.w3.org/2000/svg">
<g clip-path="url(#clip0)">
<path d="M49.1095 4.7454C48.559 4.40138 47.9398 4.26376 47.1829 4.33257C45.8756 4.53899 44.7747 5.02062 43.7426 5.77748C42.8482 6.46554 41.8161 7.2912 40.6464 8.25448C40.096 8.73611 39.5455 9.21775 38.9951 9.69939C38.651 10.0434 38.307 10.3186 37.963 10.6627C37.619 10.9379 37.3437 11.0755 36.9309 11.0067C36.7245 10.9379 36.4493 10.8691 36.174 10.8003L23.3074 5.9839C22.8946 5.84629 22.4818 5.70868 22.0001 5.57107C21.0369 5.29585 20.3488 5.57107 19.936 5.91509C19.1791 6.46554 18.5599 7.15359 18.147 7.91045C17.6654 8.66731 17.803 9.49297 18.4911 10.1122C18.7663 10.3874 19.0415 10.5939 19.2479 10.7315C21.5873 12.3828 23.9955 13.9653 26.3349 15.6167C27.2293 16.2359 28.055 16.7863 28.6743 17.5432C28.8119 17.7496 28.9495 17.8872 29.0871 18.0936L24.6147 22.3596C24.1331 22.8412 23.6515 23.254 23.1698 23.7357C23.101 23.7357 23.0322 23.6669 22.9634 23.6669L22.2066 23.3229C21.5873 23.0476 21.0369 22.7036 20.4176 22.4284C19.6608 22.0844 18.8351 22.1532 18.2158 22.7036C17.8718 22.9788 17.5278 23.3229 17.1838 23.6669C16.5645 24.2861 16.4957 25.043 17.0462 25.731C17.1838 25.9375 17.3214 26.0751 17.459 26.2127L18.7663 27.864C20.28 29.8594 21.8625 31.8547 23.4451 33.7813C23.6515 34.0565 23.8579 34.2629 24.1331 34.4005C24.4083 34.5381 24.9588 34.8822 25.6468 34.6757C26.4725 34.4005 27.0917 33.8501 27.367 33.0244C27.6422 32.3364 27.711 31.5795 27.4358 30.7538L27.2982 30.1346C27.1605 29.5841 27.0229 29.0337 26.8853 28.4833C28.7431 27.0383 30.6008 25.6622 32.3897 24.2173L33.2842 23.5293L33.4906 23.8733C33.9723 24.6302 34.3851 25.387 34.6603 26.2127L37.8254 34.3317C38.0318 34.8134 38.1694 35.295 38.3758 35.7078C38.7198 36.4647 39.2703 36.8775 39.9583 36.8775C40.2336 36.8775 40.5088 36.8087 40.784 36.6711C40.9904 36.6023 41.1968 36.5335 41.3344 36.3959C42.4353 35.8454 43.1234 35.0886 43.3986 34.0565C43.605 33.2308 43.5362 32.474 43.4674 31.9235L41.8161 19.8826C41.6785 18.9193 41.5409 17.8872 41.4033 16.924C41.3344 16.4423 41.4721 16.1671 41.8161 15.8919L43.261 14.6534C44.4307 13.6901 45.5316 12.7268 46.7013 11.7636C47.6645 10.9379 48.2838 10.181 48.8342 9.35536C49.2471 8.73611 49.6599 7.97925 49.8663 7.15359C50.2103 6.25912 49.8663 5.29585 49.1095 4.7454ZM48.559 6.87837C48.3526 7.56642 48.0086 8.18567 47.6645 8.73611C47.2517 9.42417 46.6325 10.1122 45.8068 10.8003C44.7059 11.7636 43.5362 12.7268 42.3665 13.6901L40.9904 14.8598C40.2336 15.4102 39.8895 16.2359 40.0271 17.1992C40.1648 18.1625 40.3024 19.1257 40.44 20.1578L42.0913 32.1988C42.1601 32.8868 42.1601 33.3684 42.0225 33.7813C41.8161 34.4005 41.4033 34.8822 40.7152 35.2262C40.5776 35.295 40.44 35.3638 40.2336 35.4326C39.8207 35.5702 39.6831 35.5014 39.5455 35.1574C39.3391 34.7445 39.2015 34.2629 38.9951 33.7813L35.9676 25.6622C35.6236 24.7678 35.142 23.9421 34.6603 23.1164L34.2475 22.4284L33.6282 21.5339L31.4953 23.1164C29.5687 24.5614 27.6422 26.0751 25.7844 27.52C25.3028 27.864 25.3716 28.2768 25.4404 28.5521C25.578 29.1713 25.7844 29.7906 25.922 30.4098L26.0597 31.0291C26.1973 31.5795 26.1973 32.0611 25.9908 32.474C25.7844 32.8868 25.5092 33.162 25.0276 33.2996C25.0276 33.2996 24.89 33.2996 24.6835 33.162C24.5459 33.0932 24.4083 32.9556 24.3395 32.818C22.757 30.8226 21.2433 28.8961 19.7296 26.9007L18.4223 25.2494C18.2846 25.1118 18.2158 24.9742 18.0782 24.7678C18.0094 24.699 18.0094 24.6302 18.0094 24.6302C18.0094 24.6302 18.0782 24.5614 18.147 24.4925C18.4223 24.2173 18.7663 23.8733 19.0415 23.6669C19.2479 23.4605 19.5231 23.4605 19.7984 23.5981C20.4176 23.8733 20.9681 24.1485 21.5873 24.4925L22.3442 24.8366C22.4818 24.9054 22.6194 24.9742 22.757 25.043C23.101 25.2494 23.5139 25.1806 23.8579 24.9054C24.4083 24.3549 24.9588 23.8733 25.5092 23.3229L30.2568 18.8505L30.8072 18.3001L30.4632 17.8184C30.3944 17.6808 30.3256 17.612 30.2568 17.4744C30.0504 17.1992 29.9128 16.924 29.7063 16.7175C28.9495 15.8231 28.055 15.135 27.0917 14.5158C24.7524 12.9332 22.3442 11.2819 20.0048 9.63058C19.7984 9.49297 19.592 9.35536 19.3855 9.14895C19.1791 8.94253 19.1791 8.87373 19.3167 8.73611C19.6608 8.11687 20.2112 7.56642 20.8304 7.08479C20.9681 6.94717 21.1745 6.87837 21.6561 7.01598C22.1377 7.15359 22.5506 7.2912 22.8946 7.42881L35.7612 12.2452C36.1052 12.3828 36.4493 12.4516 36.7245 12.5204C37.4813 12.658 38.2382 12.4516 38.8575 11.9012C39.2015 11.5571 39.5455 11.2819 39.8895 10.9379C40.44 10.4562 40.9904 9.97461 41.5409 9.49297C42.7106 8.5297 43.6738 7.70403 44.5683 7.01598C45.394 6.39673 46.3572 5.9839 47.3893 5.84629C47.7334 5.77748 48.0086 5.84629 48.2838 5.9839C48.559 6.0527 48.6966 6.46554 48.559 6.87837Z" fill="#07161A"/>
<path d="M18.2846 30.7538C18.0782 30.4786 17.5966 30.4098 17.3214 30.6162L0.25763 43.6204C-0.0175913 43.8269 -0.0863966 44.3085 0.12002 44.5837C0.25763 44.7901 0.464046 44.8589 0.670462 44.8589C0.808073 44.8589 0.945684 44.7901 1.08329 44.7213L18.147 31.7171C18.4911 31.5107 18.4911 31.0979 18.2846 30.7538Z" fill="#07161A"/>
<path d="M20.5552 33.9877C20.28 33.7125 19.8671 33.6437 19.5231 33.8501L9.13348 41.8315C8.85826 42.038 8.78946 42.5196 8.99587 42.7948C9.13349 43.0012 9.3399 43.07 9.54632 43.07C9.68393 43.07 9.82154 43.0012 9.95915 42.9324L20.4176 34.951C20.6928 34.7446 20.7616 34.263 20.5552 33.9877Z" fill="#07161A"/>
<path d="M8.3078 43.2765C8.10138 43.0013 7.61975 42.9325 7.34452 43.1389L5.62439 44.4462C5.34917 44.6526 5.28036 45.1343 5.48678 45.4095C5.62439 45.6159 5.83081 45.6847 6.03722 45.6847C6.17483 45.6847 6.31244 45.6159 6.45005 45.5471L8.17019 44.2398C8.44541 44.0334 8.51421 43.5517 8.3078 43.2765Z" fill="#07161A"/>
<path d="M6.03729 35.5702C5.83088 35.295 5.34924 35.2262 5.07402 35.4326L3.35388 36.7399C3.07866 36.9463 3.00986 37.4279 3.21627 37.7032C3.35388 37.9096 3.5603 37.9784 3.76671 37.9784C3.90433 37.9784 4.04194 37.9096 4.17955 37.8408L5.89968 36.5335C6.1749 36.327 6.24371 35.8454 6.03729 35.5702Z" fill="#07161A"/>
<path d="M16.0141 28.0705C15.8077 27.7952 15.326 27.7264 15.0508 27.9329L6.86298 34.1253C6.58776 34.3317 6.51895 34.8134 6.72537 35.0886C6.86298 35.2262 7.06939 35.3638 7.27581 35.3638C7.41342 35.3638 7.55103 35.295 7.68864 35.2262L15.8765 29.0337C16.1517 28.8273 16.2205 28.3457 16.0141 28.0705Z" fill="#07161A"/>
</g>
<defs>
<clipPath id="clip0">
<rect width="50" height="50" fill="white"/>
</clipPath>
</defs>
</svg>
