<svg width="50" height="50" viewBox="0 0 50 50" fill="none" xmlns="http://www.w3.org/2000/svg">
<path d="M34.9861 4.4186H34.676V0.775194C34.676 0.310077 34.3659 0 33.9008 0H16.6915C16.2264 0 15.9163 0.310077 15.9163 0.775194V3.72093L14.2884 3.17829C13.9008 3.02326 13.4357 3.25581 13.2807 3.64341L12.8931 4.88372C10.1799 5.96899 8.39693 8.60465 8.39693 11.6279V18.6047L7.8543 20.2326C7.77678 20.4651 7.77678 20.6202 7.93182 20.8527C8.00934 21.0078 8.16438 21.1628 8.39693 21.2403V41.938C8.39693 44.9612 10.8 47.3643 13.8233 47.3643H15.9163V49.2248C15.9163 49.6899 16.2264 50 16.6915 50C17.1566 50 17.4667 49.6899 17.4667 49.2248V47.3643H33.1256V49.2248C33.1256 49.6899 33.4357 50 33.9008 50C34.3659 50 34.676 49.6899 34.676 49.2248V47.3643H36.769C39.7923 47.3643 42.1954 44.9612 42.1954 41.938V11.7054C42.2729 7.67442 39.0171 4.4186 34.9861 4.4186ZM17.4667 1.62791H33.1256V4.49612H17.8543L17.4667 4.34109V1.62791ZM9.94732 11.7054C9.94732 9.92248 10.8 8.21705 12.1954 7.13178L9.94732 13.9535V11.7054ZM14.521 4.96124L18.6295 6.35659L13.6683 21.3953L9.55972 20L14.521 4.96124ZM40.7225 41.938C40.7225 44.1085 39.0171 45.814 36.8466 45.814H13.8233C11.6527 45.814 9.94732 44.1085 9.94732 41.938V21.7829L13.9008 23.1008C13.9783 23.1008 14.0558 23.1783 14.1334 23.1783C14.4434 23.1783 14.7535 22.9457 14.831 22.6357L20.3349 6.12403V6.04651H34.9861C38.1644 6.04651 40.7225 8.60465 40.7225 11.7829V41.938Z" fill="black"/>
<path d="M30.645 13.5659H20.0248C19.5597 13.5659 19.2496 13.8759 19.2496 14.3411C19.2496 14.8062 19.5597 15.1162 20.0248 15.1162H30.645C31.1101 15.1162 31.4202 14.8062 31.4202 14.3411C31.4202 13.8759 31.0326 13.5659 30.645 13.5659Z" fill="black"/>
</svg>
