<svg width="497" height="194" viewBox="0 0 497 194" fill="none" xmlns="http://www.w3.org/2000/svg">
<path d="M13.9962 12.152H0.416992V0.343994H40.5642V12.152H26.985V83H13.9962V12.152Z" fill="white"/>
<path d="M46.8529 0.343994H66.0999C72.7911 0.343994 77.6718 1.9184 80.7418 5.0672C83.8119 8.13728 85.347 12.8998 85.347 19.3549V24.4323C85.347 33.0128 82.513 38.4445 76.8452 40.7274V40.9635C79.994 41.9082 82.1982 43.8368 83.4577 46.7494C84.7959 49.6621 85.465 53.5587 85.465 58.4394V72.9632C85.465 75.3248 85.5438 77.2534 85.7012 78.7491C85.8586 80.1661 86.2522 81.583 86.882 83H73.657C73.1847 81.6618 72.8698 80.4022 72.7124 79.2214C72.555 78.0406 72.4762 75.9152 72.4762 72.8451V57.7309C72.4762 53.9523 71.8465 51.3152 70.587 49.8195C69.4062 48.3238 67.3201 47.576 64.3287 47.576H59.8417V83H46.8529V0.343994ZM64.5649 35.768C67.1626 35.768 69.0913 35.0989 70.3508 33.7606C71.689 32.4224 72.3582 30.1789 72.3582 27.0301V20.6538C72.3582 17.6624 71.8071 15.4976 70.705 14.1594C69.6817 12.8211 68.0286 12.152 65.7457 12.152H59.8417V35.768H64.5649Z" fill="white"/>
<path d="M104.514 0.343994H122.108L135.569 83H122.58L120.218 66.5869V66.823H105.458L103.097 83H91.0526L104.514 0.343994ZM118.683 55.6054L112.897 14.7498H112.661L106.993 55.6054H118.683Z" fill="white"/>
<path d="M135.102 0.343994H148.209L156.711 64.4614H156.947L165.449 0.343994H177.375L164.858 83H147.618L135.102 0.343994Z" fill="white"/>
<path d="M183.613 0.343994H219.038V12.152H196.602V33.9968H214.432V45.8048H196.602V71.192H219.038V83H183.613V0.343994Z" fill="white"/>
<path d="M226.51 0.343994H239.499V71.192H260.871V83H226.51V0.343994Z" fill="white"/>
<path d="M3.84113 109.347H23.6778C30.1326 109.347 34.9736 111.079 38.201 114.543C41.4284 118.006 43.0421 123.083 43.0421 129.774V171.573C43.0421 178.264 41.4284 183.341 38.201 186.805C34.9736 190.268 30.1326 192 23.6778 192H3.84113V109.347ZM23.4416 180.192C25.567 180.192 27.1807 179.563 28.2827 178.303C29.4635 177.044 30.0538 174.997 30.0538 172.163V129.184C30.0538 126.35 29.4635 124.303 28.2827 123.044C27.1807 121.785 25.567 121.155 23.4416 121.155H16.8294V180.192H23.4416Z" fill="white"/>
<path d="M51.8092 109.347H87.2318V121.155H64.7975V142.999H82.6269V154.806H64.7975V180.192H87.2318V192H51.8092V109.347Z" fill="white"/>
<path d="M111.819 193.181C105.522 193.181 100.759 191.41 97.532 187.867C94.3046 184.246 92.6909 179.09 92.6909 172.399V167.676H104.971V173.344C104.971 178.697 107.214 181.373 111.701 181.373C113.905 181.373 115.558 180.743 116.66 179.484C117.841 178.146 118.431 176.02 118.431 173.108C118.431 169.644 117.644 166.614 116.07 164.016C114.495 161.34 111.583 158.152 107.332 154.452C101.98 149.729 98.2405 145.478 96.1151 141.7C93.9898 137.843 92.9271 133.513 92.9271 128.712C92.9271 122.178 94.5801 117.14 97.8862 113.598C101.192 109.977 105.994 108.167 112.291 108.167C118.51 108.167 123.194 109.977 126.342 113.598C129.57 117.14 131.183 122.257 131.183 128.948V132.372H118.904V128.121C118.904 125.287 118.353 123.241 117.251 121.981C116.149 120.643 114.535 119.974 112.41 119.974C108.08 119.974 105.915 122.611 105.915 127.885C105.915 130.876 106.703 133.671 108.277 136.268C109.93 138.866 112.882 142.015 117.133 145.714C122.564 150.437 126.303 154.728 128.35 158.585C130.396 162.442 131.42 166.968 131.42 172.163C131.42 178.933 129.727 184.128 126.342 187.749C123.036 191.37 118.195 193.181 111.819 193.181Z" fill="white"/>
<path d="M149.021 121.155H135.442V109.347H175.588V121.155H162.009V192H149.021V121.155Z" fill="white"/>
<path d="M181.877 109.347H194.865V192H181.877V109.347Z" fill="white"/>
<path d="M204.592 109.347H220.887L233.521 158.821H233.757V109.347H245.328V192H231.986L216.4 131.664H216.164V192H204.592V109.347Z" fill="white"/>
<path d="M265.018 109.347H282.611L296.072 192H283.084L280.722 175.588V175.824H265.963L263.601 192H251.558L265.018 109.347ZM279.187 164.607L273.401 123.752H273.165L267.498 164.607H279.187Z" fill="white"/>
<path d="M307.108 121.155H293.53V109.347H333.675V121.155H320.097V192H307.108V121.155Z" fill="white"/>
<path d="M339.964 109.347H352.952V192H339.964V109.347Z" fill="white"/>
<path d="M381.453 193.181C375.077 193.181 370.197 191.37 366.812 187.749C363.427 184.128 361.735 179.012 361.735 172.399V128.948C361.735 122.336 363.427 117.219 366.812 113.598C370.197 109.977 375.077 108.167 381.453 108.167C387.829 108.167 392.71 109.977 396.095 113.598C399.479 117.219 401.172 122.336 401.172 128.948V172.399C401.172 179.012 399.479 184.128 396.095 187.749C392.71 191.37 387.829 193.181 381.453 193.181ZM381.453 181.373C385.94 181.373 388.184 178.657 388.184 173.226V128.121C388.184 122.69 385.94 119.974 381.453 119.974C376.966 119.974 374.723 122.69 374.723 128.121V173.226C374.723 178.657 376.966 181.373 381.453 181.373Z" fill="white"/>
<path d="M409.956 109.347H426.25L438.884 158.821H439.12V109.347H450.691V192H437.349L421.763 131.664H421.527V192H409.956V109.347Z" fill="white"/>
<path d="M477.23 193.181C470.932 193.181 466.17 191.41 462.943 187.867C459.715 184.246 458.102 179.09 458.102 172.399V167.676H470.381V173.344C470.381 178.697 472.625 181.373 477.112 181.373C479.316 181.373 480.969 180.743 482.071 179.484C483.252 178.146 483.842 176.02 483.842 173.108C483.842 169.644 483.055 166.614 481.481 164.016C479.906 161.34 476.994 158.152 472.743 154.452C467.39 149.729 463.651 145.478 461.526 141.7C459.4 137.843 458.338 133.513 458.338 128.712C458.338 122.178 459.991 117.14 463.297 113.598C466.603 109.977 471.405 108.167 477.702 108.167C483.921 108.167 488.604 109.977 491.753 113.598C494.98 117.14 496.594 122.257 496.594 128.948V132.372H484.314V128.121C484.314 125.287 483.763 123.241 482.661 121.981C481.559 120.643 479.946 119.974 477.82 119.974C473.491 119.974 471.326 122.611 471.326 127.885C471.326 130.876 472.113 133.671 473.688 136.268C475.341 138.866 478.293 142.015 482.543 145.714C487.975 150.437 491.714 154.728 493.76 158.585C495.807 162.442 496.83 166.968 496.83 172.163C496.83 178.933 495.138 184.128 491.753 187.749C488.447 191.37 483.606 193.181 477.23 193.181Z" fill="white"/>
</svg>
