<svg width="70" height="70" viewBox="0 0 70 70" fill="none" xmlns="http://www.w3.org/2000/svg">
<path d="M0 0H70V70H0V0Z" fill="#F7F9FF"/>
<path d="M29.7986 27.9549C29.7986 28.9732 28.9731 29.7987 27.9549 29.7987C26.9366 29.7987 26.1111 28.9732 26.1111 27.9549C26.1111 26.9367 26.9366 26.1112 27.9549 26.1112C28.9731 26.1112 29.7986 26.9367 29.7986 27.9549Z" fill="#212121"/>
<path d="M43.953 27.9548C43.953 28.9731 43.1275 29.7985 42.1093 29.7985C41.091 29.7985 40.2656 28.9731 40.2656 27.9548C40.2656 26.9365 41.091 26.1111 42.1093 26.1111C43.1275 26.1111 43.953 26.9365 43.953 27.9548Z" fill="#212121"/>
<path d="M43.953 42.1092C43.953 43.1275 43.1275 43.953 42.1093 43.953C41.091 43.953 40.2656 43.1275 40.2656 42.1092C40.2656 41.091 41.091 40.2655 42.1093 40.2655C43.1275 40.2655 43.953 41.091 43.953 42.1092Z" fill="#212121"/>
<path d="M29.7986 42.1092C29.7986 43.1275 28.9731 43.953 27.9549 43.953C26.9366 43.953 26.1111 43.1275 26.1111 42.1092C26.1111 41.091 26.9366 40.2655 27.9549 40.2655C28.9731 40.2655 29.7986 41.091 29.7986 42.1092Z" fill="#212121"/>
</svg>
