<svg width="110" height="110" viewBox="0 0 110 110" fill="none" xmlns="http://www.w3.org/2000/svg">
<path d="M107.812 57.5C107.812 85.2868 85.2868 107.812 57.5 107.812C29.7132 107.812 7.1875 85.2868 7.1875 57.5C7.1875 29.7132 29.7132 7.1875 57.5 7.1875C85.2868 7.1875 107.812 29.7132 107.812 57.5Z" fill="#F1F1F1"/>
<path d="M57.5 7.1875C29.7158 7.1875 7.1875 29.7158 7.1875 57.5C7.1875 85.2842 29.7158 107.812 57.5 107.812C85.2842 107.812 107.812 85.2842 107.812 57.5C107.812 29.7158 85.2842 7.1875 57.5 7.1875ZM73.6831 58.2749L49.1558 76.1201C49.0213 76.2167 48.8628 76.2744 48.6977 76.2868C48.5326 76.2992 48.3672 76.2659 48.2198 76.1905C48.0724 76.115 47.9487 76.0004 47.8622 75.8592C47.7757 75.718 47.7298 75.5557 47.7295 75.3901V39.7222C47.7289 39.5563 47.7744 39.3934 47.8607 39.2517C47.947 39.1101 48.0709 38.995 48.2186 38.9194C48.3663 38.8439 48.532 38.8106 48.6974 38.8235C48.8629 38.8363 49.0215 38.8947 49.1558 38.9922L73.6831 56.8262C73.799 56.9081 73.8935 57.0167 73.9587 57.1427C74.024 57.2688 74.058 57.4086 74.058 57.5505C74.058 57.6925 74.024 57.8323 73.9587 57.9584C73.8935 58.0844 73.799 58.193 73.6831 58.2749Z" fill="#FF7043"/>
</svg>
