<svg width="50" height="50" viewBox="0 0 50 50" fill="none" xmlns="http://www.w3.org/2000/svg">
<path d="M49.1718 21.2355L49.1801 21.2272H46.1488C45.6914 21.2272 45.3205 21.5981 45.3205 22.0555C45.3205 22.5128 45.6914 22.8837 46.1488 22.8837H46.8362V25.4926C46.211 24.9683 45.4241 24.6759 44.6082 24.6644H44.484V15.6864C44.484 13.2017 43.2003 11.8766 40.6742 11.8766H32.0441C29.518 11.8766 28.2342 13.1603 28.2342 15.6864V24.6892H28.11C27.2942 24.7007 26.5073 24.9932 25.8821 25.5174V22.8837H26.5695C27.0269 22.8837 27.3977 22.5128 27.3977 22.0555C27.3977 21.5981 27.0269 21.2272 26.5695 21.2272H23.5382C23.0808 21.2272 22.71 21.5981 22.71 22.0555C22.71 22.5128 23.0808 22.8837 23.5382 22.8837H24.2256V25.592C23.5841 25.0201 22.7576 24.6995 21.8983 24.6892H21.7741V15.6864C21.7741 13.2017 20.4903 11.8766 17.9642 11.8766H9.32582C6.79974 11.8766 5.51599 13.1603 5.51599 15.6864V24.6892H5.39175C4.57595 24.7007 3.78903 24.9932 3.16382 25.5174V22.8837H3.85125C4.30864 22.8837 4.67948 22.5128 4.67948 22.0555C4.67948 21.5981 4.30864 21.2272 3.85125 21.2272H0.828226C0.370838 21.2272 0 21.5981 0 22.0555C0 22.5128 0.370838 22.8837 0.828226 22.8837H1.51565V29.1285C1.51565 31.5635 3.25493 33.5347 5.40003 33.5347H6.87428V37.2948C6.87428 37.7522 7.24511 38.123 7.7025 38.123C8.15989 38.123 8.53073 37.7522 8.53073 37.2948V33.5098H21.8983C22.7111 33.4958 23.4946 33.2035 24.1179 32.6816V37.2451C24.1179 37.7025 24.4888 38.0733 24.9462 38.0733C25.4036 38.0733 25.7744 37.7025 25.7744 37.2451V32.5988C26.4168 33.1755 27.2468 33.4993 28.11 33.5098H41.5687V37.27C41.5687 37.7274 41.9395 38.0982 42.3969 38.0982C42.8543 38.0982 43.2251 37.7274 43.2251 37.27V33.5098H44.6C46.7368 33.5098 48.4843 31.5304 48.4843 29.1037V22.892H49.1718C49.6292 22.892 50 22.5211 50 22.0637C50 21.6063 49.6292 21.2355 49.1718 21.2355ZM24.1262 29.1699C24.0765 30.6607 23.0992 31.8534 21.8983 31.8534H5.39175C4.16598 31.8534 3.16382 30.6193 3.16382 29.1037C3.16382 27.588 4.16598 26.3539 5.39175 26.3539H6.35249C6.80988 26.3554 7.18186 25.9858 7.18341 25.5284C7.18351 25.5054 7.18258 25.4824 7.18072 25.4595V15.6864C7.18072 13.6987 8.19944 13.533 9.33411 13.533H17.9642C19.952 13.533 20.1176 14.5517 20.1176 15.6864V25.4346C20.0811 25.8906 20.4209 26.2899 20.8769 26.3264C20.8998 26.3283 20.9229 26.3291 20.9458 26.3291H21.9066C23.1075 26.3291 24.0848 27.5135 24.1262 28.996V29.1699ZM44.6165 31.8534H44.6082H28.11C26.8842 31.8534 25.8821 30.6193 25.8821 29.1037C25.8821 27.588 26.8842 26.3539 28.11 26.3539H29.0707C29.3099 26.3516 29.5364 26.2459 29.6919 26.0641C29.836 25.8971 29.9076 25.6795 29.8907 25.4595V15.6864C29.8907 13.6987 30.9094 13.533 32.0441 13.533H40.6825C42.6702 13.533 42.8358 14.5517 42.8358 15.6864V25.4346C42.7993 25.8906 43.1392 26.2899 43.5951 26.3264C43.618 26.3283 43.6411 26.3291 43.6641 26.3291H44.6248C45.8506 26.3291 46.8527 27.5632 46.8527 29.0788C46.8527 30.5945 45.8423 31.8534 44.6165 31.8534Z" fill="black"/>
<path d="M17.0117 24.7473H10.2783C9.82088 24.7473 9.45004 25.1182 9.45004 25.5756C9.45004 26.033 9.82088 26.4038 10.2783 26.4038H17.0117C17.4691 26.4038 17.84 26.033 17.84 25.5756C17.84 25.1182 17.4691 24.7473 17.0117 24.7473Z" fill="black"/>
<path d="M39.73 24.7473H32.9966C32.5392 24.7473 32.1683 25.1182 32.1683 25.5756C32.1683 26.033 32.5392 26.4038 32.9966 26.4038H39.73C40.1874 26.4038 40.5583 26.033 40.5583 25.5756C40.5583 25.1182 40.1874 24.7473 39.73 24.7473Z" fill="black"/>
<path d="M10.2783 15.7609C9.82088 15.7609 9.45004 16.1318 9.45004 16.5892V22.6932C9.45004 23.1506 9.82088 23.5214 10.2783 23.5214C10.7357 23.5214 11.1065 23.1506 11.1065 22.6932V16.5892C11.1065 16.1318 10.7357 15.7609 10.2783 15.7609Z" fill="black"/>
<path d="M13.6491 15.7609C13.1917 15.7609 12.8209 16.1318 12.8209 16.5892V22.6932C12.8209 23.1506 13.1917 23.5214 13.6491 23.5214C14.1065 23.5214 14.4773 23.1506 14.4773 22.6932V16.5892C14.4773 16.1318 14.1065 15.7609 13.6491 15.7609Z" fill="black"/>
<path d="M17.0117 15.7609C16.5543 15.7609 16.1835 16.1318 16.1835 16.5892V22.6932C16.1835 23.1506 16.5543 23.5214 17.0117 23.5214C17.4691 23.5214 17.8399 23.1506 17.8399 22.6932V16.5892C17.8399 16.1318 17.4691 15.7609 17.0117 15.7609Z" fill="black"/>
<path d="M32.9966 15.7609C32.5392 15.7609 32.1683 16.1318 32.1683 16.5892V22.6932C32.1683 23.1506 32.5392 23.5214 32.9966 23.5214C33.4539 23.5214 33.8248 23.1506 33.8248 22.6932V16.5892C33.8248 16.1318 33.4539 15.7609 32.9966 15.7609Z" fill="black"/>
<path d="M36.3592 15.7609C35.9018 15.7609 35.5309 16.1318 35.5309 16.5892V22.6932C35.5309 23.1506 35.9018 23.5214 36.3592 23.5214C36.8166 23.5214 37.1874 23.1506 37.1874 22.6932V16.5892C37.1874 16.1318 36.8166 15.7609 36.3592 15.7609Z" fill="black"/>
<path d="M39.73 15.7609C39.2726 15.7609 38.9018 16.1318 38.9018 16.5892V22.6932C38.9018 23.1506 39.2726 23.5214 39.73 23.5214C40.1874 23.5214 40.5582 23.1506 40.5582 22.6932V16.5892C40.5582 16.1318 40.1874 15.7609 39.73 15.7609Z" fill="black"/>
</svg>
