<svg width="160" height="29" viewBox="0 0 160 29" fill="none" xmlns="http://www.w3.org/2000/svg">
<path d="M5.54193 28C5.43637 28 5.38359 27.934 5.38359 27.8021V5.23861H0.237537C0.105587 5.23861 0.0396118 5.17264 0.0396118 5.04069L0.0791968 0.607169C0.0791968 0.501609 0.131977 0.448829 0.237537 0.448829H15.2798C15.4118 0.448829 15.4778 0.501609 15.4778 0.607169V5.04069C15.4778 5.17264 15.425 5.23861 15.3194 5.23861H10.1338L10.1734 27.8021C10.1734 27.934 10.1206 28 10.015 28H5.54193Z" fill="white"/>
<path d="M17.5912 28C17.4857 28 17.4329 27.934 17.4329 27.8021L17.5121 0.607169C17.5121 0.501609 17.5648 0.448829 17.6704 0.448829H25.6666C27.0916 0.448829 28.3979 0.805094 29.5855 1.51762C30.7994 2.20376 31.7627 3.14061 32.4752 4.32816C33.1877 5.48932 33.544 6.80882 33.544 8.28666C33.544 9.26309 33.3988 10.1472 33.1085 10.9389C32.8183 11.7042 32.4752 12.3639 32.0793 12.9181C31.6835 13.4459 31.3272 13.8418 31.0105 14.1057C32.4356 15.6891 33.1481 17.5495 33.1481 19.6871L33.1877 27.8021C33.1877 27.934 33.1217 28 32.9898 28H28.5167C28.4111 28 28.3583 27.9604 28.3583 27.8812V19.6871C28.3583 18.7371 28.0153 17.919 27.3291 17.2329C26.6694 16.5203 25.8513 16.1641 24.8749 16.1641H22.2623L22.2227 27.8021C22.2227 27.934 22.1699 28 22.0643 28H17.5912ZM22.2623 11.4139H25.6666C26.4847 11.4139 27.2104 11.1104 27.8437 10.5034C28.4771 9.89645 28.7938 9.15753 28.7938 8.28666C28.7938 7.44218 28.4771 6.71645 27.8437 6.10948C27.2368 5.50251 26.511 5.19903 25.6666 5.19903H22.2623V11.4139Z" fill="white"/>
<path d="M35.1837 27.8021L40.0922 0.607169C40.1186 0.501609 40.1846 0.448829 40.2901 0.448829H46.03C46.1355 0.448829 46.2015 0.501609 46.2279 0.607169L50.9385 27.8021C50.9649 27.934 50.9121 28 50.7802 28H46.3862C46.2807 28 46.2147 27.934 46.1883 27.8021L45.7529 24.9124H40.3693L39.9339 27.8021C39.9075 27.934 39.8415 28 39.7359 28H35.342C35.2364 28 35.1837 27.934 35.1837 27.8021ZM41.161 20.6768H44.9612L43.3382 9.55338L43.1007 8.08873L42.9423 9.55338L41.161 20.6768Z" fill="white"/>
<path d="M55.6142 28C55.5086 28 55.4426 27.934 55.4162 27.8021L49.9535 0.607169C49.9271 0.501609 49.9799 0.448829 50.1118 0.448829H54.5849C54.6905 0.448829 54.7565 0.501609 54.7829 0.607169L58.0288 18.7371L61.1956 0.607169C61.222 0.501609 61.288 0.448829 61.3936 0.448829H65.8271C65.959 0.448829 66.0118 0.501609 65.9854 0.607169L60.6019 27.8021C60.5755 27.934 60.5095 28 60.4039 28H55.6142Z" fill="white"/>
<path d="M68.4641 28C68.3586 28 68.3058 27.934 68.3058 27.8021L68.3454 0.607169C68.3454 0.501609 68.3982 0.448829 68.5037 0.448829H81.2105C81.3161 0.448829 81.3688 0.514803 81.3688 0.646753V5.08027C81.3688 5.18583 81.3161 5.23861 81.2105 5.23861H73.0956V11.4139H81.2105C81.3161 11.4139 81.3688 11.4667 81.3688 11.5722L81.4084 16.0453C81.4084 16.1509 81.3557 16.2037 81.2501 16.2037H73.0956V23.131H81.2501C81.3557 23.131 81.4084 23.197 81.4084 23.329V27.8416C81.4084 27.9472 81.3557 28 81.2501 28H68.4641Z" fill="white"/>
<path d="M85.0867 28C84.9812 28 84.9284 27.934 84.9284 27.8021L84.968 0.646753C84.968 0.514803 85.034 0.448829 85.1659 0.448829H89.5598C89.6918 0.448829 89.7578 0.514803 89.7578 0.646753L89.7182 23.131H97.8727C98.0046 23.131 98.0706 23.197 98.0706 23.329V27.8021C98.0706 27.934 98.0046 28 97.8727 28H85.0867Z" fill="white"/>
<path d="M106.386 28.3958C104.961 28.3958 103.655 28.0396 102.467 27.327C101.306 26.5881 100.369 25.6249 99.6568 24.4373C98.9707 23.2234 98.6276 21.8907 98.6276 20.4393V18.6183C98.6276 18.4864 98.6936 18.4204 98.8255 18.4204H103.259C103.365 18.4204 103.417 18.4864 103.417 18.6183V20.4393C103.417 21.3101 103.708 22.0622 104.288 22.6956C104.869 23.3026 105.568 23.6061 106.386 23.6061C107.204 23.6061 107.904 23.2894 108.484 22.656C109.065 22.0227 109.355 21.2837 109.355 20.4393C109.355 19.4628 108.722 18.6183 107.455 17.9058C107.033 17.6683 106.373 17.2988 105.476 16.7974C104.579 16.296 103.734 15.821 102.942 15.3724C101.491 14.5279 100.409 13.4723 99.6964 12.2056C99.0102 10.9125 98.6672 9.46101 98.6672 7.85122C98.6672 6.37338 99.0234 5.05388 99.736 3.89272C100.449 2.70517 101.385 1.76833 102.547 1.08219C103.734 0.396049 105.014 0.0529785 106.386 0.0529785C107.785 0.0529785 109.065 0.409244 110.226 1.12177C111.414 1.80791 112.35 2.74476 113.037 3.93231C113.749 5.09347 114.105 6.39977 114.105 7.85122V11.0972C114.105 11.2028 114.053 11.2555 113.947 11.2555H109.513C109.408 11.2555 109.355 11.2028 109.355 11.0972L109.316 7.85122C109.316 6.92757 109.025 6.17546 108.445 5.59488C107.864 5.0143 107.178 4.72401 106.386 4.72401C105.568 4.72401 104.869 5.04069 104.288 5.67405C103.708 6.28102 103.417 7.00674 103.417 7.85122C103.417 8.72209 103.602 9.44782 103.972 10.0284C104.341 10.609 105.014 11.1632 105.99 11.691C106.122 11.7701 106.373 11.9153 106.743 12.1264C107.138 12.3111 107.561 12.5354 108.009 12.7993C108.458 13.0369 108.854 13.248 109.197 13.4327C109.566 13.6174 109.791 13.7362 109.87 13.789C111.189 14.5279 112.232 15.4383 112.997 16.5203C113.762 17.5759 114.145 18.8822 114.145 20.4393C114.145 21.9435 113.789 23.3026 113.076 24.5165C112.39 25.7041 111.453 26.6541 110.266 27.3666C109.104 28.0528 107.811 28.3958 106.386 28.3958Z" fill="white"/>
<path d="M148.994 15.3915L144.083 20.3479C143.913 20.5192 143.913 20.7971 144.083 20.9684C144.253 21.1398 144.528 21.1398 144.698 20.9684L149.917 15.7018C150.087 15.5305 150.087 15.2526 149.917 15.0812L144.698 9.81463C144.525 9.64625 144.25 9.65108 144.083 9.82544C143.921 9.99552 143.921 10.2652 144.083 10.4352L148.994 15.3915Z" fill="#07161A"/>
<path fill-rule="evenodd" clip-rule="evenodd" d="M149.917 15.7018C150.087 15.5305 150.087 15.2526 149.917 15.0812L144.698 9.81463C144.525 9.64625 144.25 9.65108 144.083 9.82544C143.922 9.99359 143.921 10.259 144.078 10.4294C144.08 10.4313 144.081 10.4333 144.083 10.4352L148.994 15.3915L144.083 20.3479C144.081 20.3497 144.08 20.3516 144.078 20.3535C144.078 20.3535 144.078 20.3535 144.078 20.3535C143.914 20.5253 143.915 20.799 144.083 20.9684C144.253 21.1398 144.528 21.1398 144.698 20.9684L144.704 20.9627L149.917 15.7018Z" fill="white"/>
<path fill-rule="evenodd" clip-rule="evenodd" d="M147 27.0294C153.644 27.0294 159.029 21.6437 159.029 15C159.029 8.35634 153.644 2.97059 147 2.97059C140.356 2.97059 134.971 8.35634 134.971 15C134.971 21.6437 140.356 27.0294 147 27.0294ZM147 28C154.18 28 160 22.1797 160 15C160 7.8203 154.18 2 147 2C139.82 2 134 7.8203 134 15C134 22.1797 139.82 28 147 28Z" fill="white"/>
</svg>
